<mxfile host="app.diagrams.net" modified="2022-12-25T05:31:17.257Z" agent="5.0 (Macintosh; Intel Mac OS X 10_15_7) AppleWebKit/605.1.15 (KHTML, like Gecko) Version/16.1 Safari/605.1.15" etag="cqg7OW5FgeAhysV48xGI" version="20.7.4" type="github">
  <diagram id="1c3a3Ne5sWxcKdT_-n9J" name="Page-1">
    <mxGraphModel dx="2417" dy="1078" grid="1" gridSize="10" guides="1" tooltips="1" connect="1" arrows="1" fold="1" page="1" pageScale="1" pageWidth="827" pageHeight="1169" math="0" shadow="0">
      <root>
        <mxCell id="0" />
        <mxCell id="1" parent="0" />
        <mxCell id="gdSRfwR2-Zda05xjYu1--1" value="Camera" style="rounded=0;whiteSpace=wrap;html=1;" parent="1" vertex="1">
          <mxGeometry x="785" y="230" width="120" height="60" as="geometry" />
        </mxCell>
        <mxCell id="gdSRfwR2-Zda05xjYu1--2" value="" style="endArrow=none;dashed=1;html=1;rounded=0;strokeWidth=2;" parent="1" edge="1">
          <mxGeometry width="50" height="50" relative="1" as="geometry">
            <mxPoint x="645" y="455" as="sourcePoint" />
            <mxPoint x="645" y="175" as="targetPoint" />
            <Array as="points">
              <mxPoint x="644.5" y="311.25" />
            </Array>
          </mxGeometry>
        </mxCell>
        <mxCell id="gdSRfwR2-Zda05xjYu1--3" value="Internet" style="text;html=1;strokeColor=none;fillColor=none;align=center;verticalAlign=middle;whiteSpace=wrap;rounded=0;fontSize=14;" parent="1" vertex="1">
          <mxGeometry x="615" y="125" width="60" height="30" as="geometry" />
        </mxCell>
        <mxCell id="gdSRfwR2-Zda05xjYu1--4" value="Socket" style="whiteSpace=wrap;html=1;aspect=fixed;fontSize=14;fillColor=none;rotation=-90;" parent="1" vertex="1">
          <mxGeometry x="560" y="292.5" width="55" height="55" as="geometry" />
        </mxCell>
        <mxCell id="gdSRfwR2-Zda05xjYu1--6" value="Server" style="text;html=1;strokeColor=none;fillColor=none;align=center;verticalAlign=middle;whiteSpace=wrap;rounded=0;fontSize=14;" parent="1" vertex="1">
          <mxGeometry x="-198.75" y="150" width="60" height="30" as="geometry" />
        </mxCell>
        <mxCell id="gdSRfwR2-Zda05xjYu1--7" value="" style="endArrow=classic;html=1;strokeWidth=2;fontSize=14;rounded=0;dashed=1;" parent="1" edge="1">
          <mxGeometry width="50" height="50" relative="1" as="geometry">
            <mxPoint x="785" y="320.75" as="sourcePoint" />
            <mxPoint x="675" y="320.75" as="targetPoint" />
            <Array as="points">
              <mxPoint x="725" y="320.75" />
            </Array>
          </mxGeometry>
        </mxCell>
        <mxCell id="gdSRfwR2-Zda05xjYu1--9" value="ByteDecoder" style="rounded=0;whiteSpace=wrap;html=1;fontSize=14;fillColor=none;" parent="1" vertex="1">
          <mxGeometry x="320" y="280" width="120" height="80" as="geometry" />
        </mxCell>
        <mxCell id="gdSRfwR2-Zda05xjYu1--10" style="edgeStyle=orthogonalEdgeStyle;rounded=0;orthogonalLoop=1;jettySize=auto;html=1;exitX=0.5;exitY=1;exitDx=0;exitDy=0;dashed=1;strokeWidth=2;fontSize=14;" parent="1" source="gdSRfwR2-Zda05xjYu1--9" target="gdSRfwR2-Zda05xjYu1--9" edge="1">
          <mxGeometry relative="1" as="geometry" />
        </mxCell>
        <mxCell id="gdSRfwR2-Zda05xjYu1--14" value="" style="endArrow=classic;html=1;rounded=0;strokeWidth=2;fontSize=14;exitX=0;exitY=0.5;exitDx=0;exitDy=0;" parent="1" source="gdSRfwR2-Zda05xjYu1--9" edge="1">
          <mxGeometry width="50" height="50" relative="1" as="geometry">
            <mxPoint x="110" y="350" as="sourcePoint" />
            <mxPoint x="260" y="320" as="targetPoint" />
          </mxGeometry>
        </mxCell>
        <mxCell id="gdSRfwR2-Zda05xjYu1--15" value="Robots&amp;nbsp;/ Route&lt;br&gt;Recognizer" style="rounded=0;whiteSpace=wrap;html=1;fontSize=14;fillColor=none;" parent="1" vertex="1">
          <mxGeometry x="-98.75" y="290" width="130" height="60" as="geometry" />
        </mxCell>
        <mxCell id="gdSRfwR2-Zda05xjYu1--16" value="image with timestamp and camera id" style="text;html=1;strokeColor=none;fillColor=none;align=center;verticalAlign=middle;whiteSpace=wrap;rounded=0;fontSize=14;rotation=0;" parent="1" vertex="1">
          <mxGeometry x="260" y="370" width="160" height="30" as="geometry" />
        </mxCell>
        <mxCell id="gdSRfwR2-Zda05xjYu1--19" value="" style="endArrow=classic;html=1;rounded=0;strokeWidth=2;fontSize=14;exitX=0;exitY=0.5;exitDx=0;exitDy=0;entryX=1;entryY=0.5;entryDx=0;entryDy=0;" parent="1" source="gdSRfwR2-Zda05xjYu1--15" target="gdSRfwR2-Zda05xjYu1--20" edge="1">
          <mxGeometry width="50" height="50" relative="1" as="geometry">
            <mxPoint x="-218.75" y="360" as="sourcePoint" />
            <mxPoint x="-168.75" y="310" as="targetPoint" />
          </mxGeometry>
        </mxCell>
        <mxCell id="gdSRfwR2-Zda05xjYu1--20" value="" style="rounded=0;whiteSpace=wrap;html=1;fontSize=14;fillColor=none;" parent="1" vertex="1">
          <mxGeometry x="-218.75" y="270" width="40" height="60" as="geometry" />
        </mxCell>
        <mxCell id="gdSRfwR2-Zda05xjYu1--21" value="" style="rounded=0;whiteSpace=wrap;html=1;fontSize=14;fillColor=none;" parent="1" vertex="1">
          <mxGeometry x="-218.75" y="330" width="40" height="60" as="geometry" />
        </mxCell>
        <mxCell id="gdSRfwR2-Zda05xjYu1--22" value="" style="endArrow=classic;html=1;rounded=0;strokeWidth=2;fontSize=14;exitX=0;exitY=0.5;exitDx=0;exitDy=0;entryX=1;entryY=0.5;entryDx=0;entryDy=0;" parent="1" source="gdSRfwR2-Zda05xjYu1--15" target="gdSRfwR2-Zda05xjYu1--21" edge="1">
          <mxGeometry width="50" height="50" relative="1" as="geometry">
            <mxPoint x="-218.75" y="360" as="sourcePoint" />
            <mxPoint x="-168.75" y="310" as="targetPoint" />
          </mxGeometry>
        </mxCell>
        <mxCell id="gdSRfwR2-Zda05xjYu1--23" value="[robot]" style="text;html=1;strokeColor=none;fillColor=none;align=center;verticalAlign=middle;whiteSpace=wrap;rounded=0;fontSize=14;" parent="1" vertex="1">
          <mxGeometry x="-158.75" y="357.5" width="60" height="30" as="geometry" />
        </mxCell>
        <mxCell id="gdSRfwR2-Zda05xjYu1--24" value="route" style="text;html=1;strokeColor=none;fillColor=none;align=center;verticalAlign=middle;whiteSpace=wrap;rounded=0;fontSize=14;" parent="1" vertex="1">
          <mxGeometry x="-158.75" y="265" width="60" height="30" as="geometry" />
        </mxCell>
        <mxCell id="gdSRfwR2-Zda05xjYu1--25" value="Interpretator" style="rounded=0;whiteSpace=wrap;html=1;fontSize=14;fillColor=none;" parent="1" vertex="1">
          <mxGeometry x="-348.75" y="270" width="130" height="120" as="geometry" />
        </mxCell>
        <mxCell id="gdSRfwR2-Zda05xjYu1--26" value="Converts model objects to mathematical objects (matrixes, coordinates)" style="text;html=1;strokeColor=none;fillColor=none;align=center;verticalAlign=middle;whiteSpace=wrap;rounded=0;fontSize=14;" parent="1" vertex="1">
          <mxGeometry x="-348.75" y="380" width="130" height="110" as="geometry" />
        </mxCell>
        <mxCell id="gdSRfwR2-Zda05xjYu1--27" value="" style="rounded=0;whiteSpace=wrap;html=1;fontSize=14;fillColor=none;" parent="1" vertex="1">
          <mxGeometry x="-448.75" y="270" width="100" height="120" as="geometry" />
        </mxCell>
        <mxCell id="gdSRfwR2-Zda05xjYu1--28" value="Estimator" style="text;html=1;strokeColor=none;fillColor=none;align=center;verticalAlign=middle;whiteSpace=wrap;rounded=0;fontSize=14;" parent="1" vertex="1">
          <mxGeometry x="-428.75" y="315" width="60" height="30" as="geometry" />
        </mxCell>
        <mxCell id="gdSRfwR2-Zda05xjYu1--29" value="Estimates diff between ideal trajectory and real once" style="text;html=1;strokeColor=none;fillColor=none;align=center;verticalAlign=middle;whiteSpace=wrap;rounded=0;fontSize=14;" parent="1" vertex="1">
          <mxGeometry x="-448.75" y="400" width="100" height="80" as="geometry" />
        </mxCell>
        <mxCell id="gdSRfwR2-Zda05xjYu1--30" value="User&lt;br&gt;Presenter" style="rounded=0;whiteSpace=wrap;html=1;fontSize=14;fillColor=none;" parent="1" vertex="1">
          <mxGeometry x="-538.75" y="270" width="90" height="120" as="geometry" />
        </mxCell>
        <mxCell id="gdSRfwR2-Zda05xjYu1--32" value="" style="rounded=0;whiteSpace=wrap;html=1;fontSize=14;fillColor=none;" parent="1" vertex="1">
          <mxGeometry x="-580" y="243.75" width="40" height="180" as="geometry" />
        </mxCell>
        <mxCell id="gdSRfwR2-Zda05xjYu1--35" value="Display" style="text;html=1;strokeColor=none;fillColor=none;align=center;verticalAlign=middle;whiteSpace=wrap;rounded=0;fontSize=14;rotation=90;" parent="1" vertex="1">
          <mxGeometry x="-650" y="316.25" width="182.5" height="30" as="geometry" />
        </mxCell>
        <mxCell id="gdSRfwR2-Zda05xjYu1--36" value="Converts in-module data to user-presentable&amp;nbsp;" style="text;html=1;strokeColor=none;fillColor=none;align=center;verticalAlign=middle;whiteSpace=wrap;rounded=0;fontSize=14;" parent="1" vertex="1">
          <mxGeometry x="-528.12" y="400" width="68.75" height="80" as="geometry" />
        </mxCell>
        <mxCell id="fbBy95R8mquqIEM03Fjc-1" value="Client" style="rounded=0;whiteSpace=wrap;html=1;" parent="1" vertex="1">
          <mxGeometry x="785" y="290" width="120" height="60" as="geometry" />
        </mxCell>
        <mxCell id="fbBy95R8mquqIEM03Fjc-2" value="Camera&#39;s registrator&amp;nbsp;" style="rounded=0;whiteSpace=wrap;html=1;rotation=-90;" parent="1" vertex="1">
          <mxGeometry x="465" y="295" width="140" height="50" as="geometry" />
        </mxCell>
        <mxCell id="fbBy95R8mquqIEM03Fjc-3" value="Images buffer" style="rounded=0;whiteSpace=wrap;html=1;rotation=-90;" parent="1" vertex="1">
          <mxGeometry x="108.75" y="288.75" width="242.5" height="60" as="geometry" />
        </mxCell>
        <mxCell id="fbBy95R8mquqIEM03Fjc-4" value="Sync manager" style="rounded=0;whiteSpace=wrap;html=1;rotation=0;" parent="1" vertex="1">
          <mxGeometry x="50" y="290" width="120" height="60" as="geometry" />
        </mxCell>
        <mxCell id="_ftnjJTq1J7DcT885IHt-4" value="frame" style="rounded=0;whiteSpace=wrap;html=1;" vertex="1" parent="1">
          <mxGeometry x="705" y="260" width="60" height="40" as="geometry" />
        </mxCell>
        <mxCell id="_ftnjJTq1J7DcT885IHt-5" value="frame:&lt;br&gt;- image&lt;br&gt;- timestamp" style="text;html=1;strokeColor=none;fillColor=none;align=center;verticalAlign=middle;whiteSpace=wrap;rounded=0;" vertex="1" parent="1">
          <mxGeometry x="685" y="320" width="100" height="103.75" as="geometry" />
        </mxCell>
        <mxCell id="_ftnjJTq1J7DcT885IHt-8" value="" style="endArrow=classic;html=1;rounded=0;" edge="1" parent="1">
          <mxGeometry width="50" height="50" relative="1" as="geometry">
            <mxPoint x="510" y="293" as="sourcePoint" />
            <mxPoint x="440" y="293" as="targetPoint" />
          </mxGeometry>
        </mxCell>
        <mxCell id="_ftnjJTq1J7DcT885IHt-13" value="" style="endArrow=classic;html=1;rounded=0;exitX=0.75;exitY=0;exitDx=0;exitDy=0;" edge="1" parent="1">
          <mxGeometry width="50" height="50" relative="1" as="geometry">
            <mxPoint x="510" y="310" as="sourcePoint" />
            <mxPoint x="440" y="310.5" as="targetPoint" />
          </mxGeometry>
        </mxCell>
        <mxCell id="_ftnjJTq1J7DcT885IHt-14" value="" style="endArrow=classic;html=1;rounded=0;exitX=0.75;exitY=0;exitDx=0;exitDy=0;" edge="1" parent="1">
          <mxGeometry width="50" height="50" relative="1" as="geometry">
            <mxPoint x="510" y="324.41" as="sourcePoint" />
            <mxPoint x="440" y="324.91" as="targetPoint" />
          </mxGeometry>
        </mxCell>
        <mxCell id="_ftnjJTq1J7DcT885IHt-15" value="" style="endArrow=classic;html=1;rounded=0;exitX=0.75;exitY=0;exitDx=0;exitDy=0;" edge="1" parent="1">
          <mxGeometry width="50" height="50" relative="1" as="geometry">
            <mxPoint x="510" y="336.25000000000006" as="sourcePoint" />
            <mxPoint x="440" y="336.75000000000006" as="targetPoint" />
          </mxGeometry>
        </mxCell>
        <mxCell id="_ftnjJTq1J7DcT885IHt-16" value="" style="endArrow=classic;html=1;rounded=0;exitX=0.75;exitY=0;exitDx=0;exitDy=0;" edge="1" parent="1">
          <mxGeometry width="50" height="50" relative="1" as="geometry">
            <mxPoint x="510" y="355.0000000000001" as="sourcePoint" />
            <mxPoint x="440" y="355.5000000000001" as="targetPoint" />
          </mxGeometry>
        </mxCell>
        <mxCell id="_ftnjJTq1J7DcT885IHt-22" value="" style="endArrow=classic;html=1;rounded=0;exitX=0.5;exitY=0;exitDx=0;exitDy=0;entryX=1;entryY=0.5;entryDx=0;entryDy=0;" edge="1" parent="1" source="fbBy95R8mquqIEM03Fjc-3" target="fbBy95R8mquqIEM03Fjc-4">
          <mxGeometry width="50" height="50" relative="1" as="geometry">
            <mxPoint x="210" y="460" as="sourcePoint" />
            <mxPoint x="260" y="410" as="targetPoint" />
          </mxGeometry>
        </mxCell>
        <mxCell id="_ftnjJTq1J7DcT885IHt-23" value="" style="endArrow=classic;html=1;rounded=0;exitX=0;exitY=0.5;exitDx=0;exitDy=0;entryX=1;entryY=0.5;entryDx=0;entryDy=0;" edge="1" parent="1" source="fbBy95R8mquqIEM03Fjc-4" target="gdSRfwR2-Zda05xjYu1--15">
          <mxGeometry width="50" height="50" relative="1" as="geometry">
            <mxPoint x="210" y="460" as="sourcePoint" />
            <mxPoint x="260" y="410" as="targetPoint" />
          </mxGeometry>
        </mxCell>
        <mxCell id="_ftnjJTq1J7DcT885IHt-24" value="" style="rounded=0;whiteSpace=wrap;html=1;dashed=1;fillColor=none;" vertex="1" parent="1">
          <mxGeometry x="-540" y="155" width="1100" height="370" as="geometry" />
        </mxCell>
      </root>
    </mxGraphModel>
  </diagram>
</mxfile>
